<svg data-v-423bf9ae="" xmlns="http://www.w3.org/2000/svg" viewBox="0 0 309 112" class="iconLeftSlogan"><!----><!----><!----><g data-v-423bf9ae="" id="1bf75048-68df-40c1-884d-1e6a401f80fb" fill="black" transform="matrix(6.486486486486487,0,0,6.486486486486487,128.38678405574848,-24.713512665516625)"><path d="M3.58 12.75L3.58 12.75L3.58 12.75Q3.78 11.77 3.78 10.00L3.78 10.00L3.78 10.00Q3.78 8.23 3.77 7.91L3.77 7.91L3.77 7.91Q3.75 7.59 3.57 7.39L3.57 7.39L3.57 7.39Q3.39 7.20 3.25 7.17L3.25 7.17L3.25 7.17Q3.12 7.14 2.88 7.14L2.88 7.14L2.88 7.14Q2.65 7.14 2.42 7.36L2.42 7.36L2.42 7.36Q2.20 7.57 2.16 7.80L2.16 7.80L2.10 8.02L2.10 8.02Q2.06 8.44 2.06 9.88L2.06 9.88L2.06 9.88Q2.06 11.33 2.12 11.70L2.12 11.70L2.12 11.70Q2.18 12.07 2.18 12.19L2.18 12.19L2.18 12.19Q2.18 12.32 2.07 12.45L2.07 12.45L2.07 12.45Q1.60 12.95 0.73 12.95L0.73 12.95L0.73 12.95Q0.42 12.95 0.42 12.77L0.42 12.77L0.42 12.77Q0.70 11.09 0.70 8.48L0.70 8.48L0.70 8.48Q0.70 7.52 0.66 7.18L0.66 7.18L0.60 6.73L0.60 6.73Q0.59 6.58 0.55 6.40L0.55 6.40L0.55 6.40Q0.55 6.23 0.98 6.23L0.98 6.23L0.98 6.23Q1.62 6.23 1.83 6.71L1.83 6.71L1.83 6.71Q1.85 6.76 1.89 6.76L1.89 6.76L1.89 6.76Q1.93 6.76 2.09 6.65L2.09 6.65L2.09 6.65Q2.55 6.29 3.33 6.29L3.33 6.29L3.33 6.29Q3.78 6.29 4.21 6.45L4.21 6.45L4.21 6.45Q4.65 6.62 4.82 6.90L4.82 6.90L4.82 6.90Q4.83 6.93 4.86 6.93L4.86 6.93L4.86 6.93Q4.89 6.93 4.94 6.87L4.94 6.87L4.94 6.87Q5.53 6.29 6.47 6.29L6.47 6.29L6.47 6.29Q7.71 6.29 8.18 7.18L8.18 7.18L8.18 7.18Q8.34 7.53 8.34 8.06L8.34 8.06L8.34 8.06Q8.34 8.60 8.26 9.58L8.26 9.58L8.26 9.58Q8.18 10.56 8.18 11.07L8.18 11.07L8.18 11.07Q8.18 11.59 8.28 12.01L8.28 12.01L8.28 12.01Q8.39 12.43 8.49 12.61L8.49 12.61L8.49 12.61Q8.60 12.80 8.60 12.82L8.60 12.82L8.60 12.82Q8.60 13.01 8.20 13.01L8.20 13.01L8.20 13.01Q7.24 13.01 6.86 12.61L6.86 12.61L6.86 12.61Q6.48 12.22 6.48 11.59L6.48 11.59L6.48 11.59Q6.48 10.95 6.74 9.86L6.74 9.86L6.74 9.86Q7 8.78 7 8.23L7 8.23L7 8.23Q7 7.13 6.10 7.13L6.10 7.13L6.10 7.13Q5.73 7.13 5.50 7.35L5.50 7.35L5.50 7.35Q5.28 7.57 5.24 7.80L5.24 7.80L5.21 8.02L5.21 8.02Q5.15 8.67 5.15 9.58L5.15 9.58L5.15 9.58Q5.15 10.49 5.18 11.00L5.18 11.00L5.18 11.00Q5.21 11.51 5.24 11.79L5.24 11.79L5.24 11.79Q5.26 12.08 5.26 12.14L5.26 12.14L5.26 12.14Q5.26 12.53 4.77 12.74L4.77 12.74L4.77 12.74Q4.28 12.95 3.82 12.95L3.82 12.95L3.82 12.95Q3.58 12.95 3.58 12.75ZM10.43 7.39L10.43 7.39L10.43 7.39Q10.07 7.41 9.90 7.41L9.90 7.41L9.90 7.41Q9.74 7.42 9.74 7.34L9.74 7.34L9.74 7.34Q9.74 7.25 9.83 7.17L9.83 7.17L9.83 7.17Q10.72 6.34 12.85 6.34L12.85 6.34L12.85 6.34Q13.58 6.34 14 6.47L14 6.47L14.14 6.51L14.14 6.51Q14.31 6.58 14.31 6.66L14.31 6.66L14.31 6.66Q14.31 6.73 14.21 6.78L14.21 6.78L14.21 6.78Q13.83 6.89 13.48 7.13L13.48 7.13L13.48 7.13Q13.13 7.38 13.13 7.48L13.13 7.48L13.22 7.57L13.22 7.57Q13.66 7.83 13.91 8.37L13.91 8.37L13.91 8.37Q14.15 8.92 14.18 9.34L14.18 9.34L14.21 9.77L14.21 9.77Q14.21 11.16 13.44 12.05L13.44 12.05L13.44 12.05Q12.67 12.95 11.34 12.95L11.34 12.95L11.34 12.95Q10.67 12.95 10.18 12.71L10.18 12.71L10.18 12.71Q9.69 12.47 9.46 12.17L9.46 12.17L9.46 12.17Q9.23 11.87 9.09 11.49L9.09 11.49L9.09 11.49Q8.92 10.98 8.92 10.42L8.92 10.42L8.92 10.42Q8.92 9.87 9.11 9.31L9.11 9.31L9.11 9.31Q9.30 8.75 9.54 8.48L9.54 8.48L9.54 8.48Q9.79 8.22 10.09 8.05L10.09 8.05L10.09 8.05Q10.49 7.84 10.72 7.84L10.72 7.84L10.72 7.84Q10.96 7.84 10.96 7.94L10.96 7.94L10.88 8.08L10.88 8.08Q10.57 8.44 10.44 9.03L10.44 9.03L10.44 9.03Q10.30 9.62 10.30 10.07L10.30 10.07L10.30 10.07Q10.30 10.53 10.42 10.98L10.42 10.98L10.42 10.98Q10.53 11.42 10.67 11.64L10.67 11.64L10.67 11.64Q10.81 11.86 10.99 11.97L10.99 11.97L10.99 11.97Q11.26 12.14 11.55 12.14L11.55 12.14L11.55 12.14Q11.84 12.14 12.12 11.91L12.12 11.91L12.12 11.91Q12.40 11.68 12.53 11.30L12.53 11.30L12.53 11.30Q12.78 10.60 12.78 9.86L12.78 9.86L12.78 9.86Q12.78 8.68 12.19 8.04L12.19 8.04L12.19 8.04Q11.59 7.39 10.43 7.39ZM18.09 6.62L18.09 6.62L18.09 6.62Q18.69 6.33 19.28 6.33L19.28 6.33L19.28 6.33Q19.87 6.33 19.87 7.55L19.87 7.55L19.87 7.55Q19.87 8.44 19.54 9.37L19.54 9.37L19.54 9.37Q19.21 10.29 18.72 10.99L18.72 10.99L18.72 10.99Q17.71 12.46 16.90 12.95L16.90 12.95L16.90 12.95Q16.70 13.06 16.60 13.06L16.60 13.06L16.60 13.06Q16.51 13.06 16.40 12.85L16.40 12.85L16.40 12.85Q16.30 12.64 16.08 11.93L16.08 11.93L16.08 11.93Q15.86 11.21 15.72 10.65L15.72 10.65L15.60 10.08L15.60 10.08Q15.32 8.85 15.05 8.11L15.05 8.11L15.05 8.11Q14.78 7.38 14.66 7.27L14.66 7.27L14.52 7.14L14.52 7.14Q14.38 7.07 14.38 6.97L14.38 6.97L14.45 6.85L14.45 6.85Q14.63 6.68 15.06 6.50L15.06 6.50L15.06 6.50Q15.48 6.33 16.00 6.33L16.00 6.33L16.00 6.33Q16.24 6.33 16.30 6.59L16.30 6.59L16.30 6.59Q16.51 7.24 16.66 8.11L16.66 8.11L16.66 8.11Q16.81 8.97 17.07 10.07L17.07 10.07L17.07 10.07Q17.33 11.16 17.50 11.17L17.50 11.17L17.50 11.17Q17.58 11.17 17.69 11.05L17.69 11.05L17.69 11.05Q17.79 10.92 17.94 10.71L17.94 10.71L17.94 10.71Q18.09 10.50 18.30 9.90L18.30 9.90L18.30 9.90Q18.52 9.30 18.52 8.87L18.52 8.87L18.52 8.87Q18.52 8.44 18.49 8.21L18.49 8.21L18.49 8.21Q18.45 7.98 18.24 7.67L18.24 7.67L18.24 7.67Q18.03 7.36 17.77 7.31L17.77 7.31L17.77 7.31Q17.50 7.27 17.50 7.14L17.50 7.14L17.50 7.14Q17.50 6.92 18.09 6.62ZM21.80 5.18L21.80 5.18L21.46 5.17L21.46 5.17Q21.08 5.17 20.97 5.35L20.97 5.35L20.97 5.35Q20.94 5.39 20.90 5.39L20.90 5.39L20.90 5.39Q20.72 5.39 20.72 4.77L20.72 4.77L20.72 4.77Q20.72 4.14 20.91 3.98L20.91 3.98L20.91 3.98Q21.10 3.81 21.57 3.81L21.57 3.81L21.57 3.81Q22.04 3.81 22.20 3.97L22.20 3.97L22.20 3.97Q22.37 4.13 22.37 4.51L22.37 4.51L22.37 4.51Q22.37 4.89 22.25 5.03L22.25 5.03L22.25 5.03Q22.12 5.18 21.80 5.18ZM20.68 12.25L20.68 12.25L20.83 8.99L20.83 8.99Q20.83 7.83 20.57 7.41L20.57 7.41L20.57 7.41Q20.48 7.27 20.37 7.20L20.37 7.20L20.37 7.20Q20.29 7.17 20.29 7.08L20.29 7.08L20.29 7.08Q20.29 6.83 21 6.59L21 6.59L21 6.59Q21.71 6.36 22.04 6.36L22.04 6.36L22.04 6.36Q22.37 6.36 22.39 6.52L22.39 6.52L22.39 6.52Q22.39 6.80 22.31 8.11L22.31 8.11L22.31 8.11Q22.23 9.42 22.23 10.86L22.23 10.86L22.23 10.86Q22.23 12.31 22.40 12.66L22.40 12.66L22.40 12.66Q22.44 12.73 22.44 12.80L22.44 12.80L22.44 12.80Q22.44 12.98 21.91 12.98L21.91 12.98L21.91 12.98Q21.38 12.98 20.82 12.70L20.82 12.70L20.82 12.70Q20.68 12.63 20.68 12.25ZM24.63 9.11L24.63 9.11L24.64 9.46L24.64 9.46Q24.64 9.55 24.75 9.55L24.75 9.55L24.75 9.55Q25.20 9.51 25.54 9.32L25.54 9.32L25.54 9.32Q25.87 9.13 26.04 8.89L26.04 8.89L26.04 8.89Q26.38 8.37 26.40 7.99L26.40 7.99L26.42 7.83L26.42 7.83Q26.42 7.07 25.82 7.07L25.82 7.07L25.82 7.07Q25.37 7.07 25.09 7.46L25.09 7.46L25.09 7.46Q24.63 8.08 24.63 9.11ZM27.68 10.98L27.68 10.98L27.68 10.98Q27.68 11.51 27.46 11.91L27.46 11.91L27.46 11.91Q27.24 12.31 26.97 12.49L26.97 12.49L26.97 12.49Q26.70 12.68 26.33 12.80L26.33 12.80L26.33 12.80Q25.87 12.94 25.45 12.94L25.45 12.94L25.45 12.94Q24.28 12.94 23.72 12.05L23.72 12.05L23.72 12.05Q23.16 11.17 23.16 9.81L23.16 9.81L23.16 9.81Q23.16 8.44 23.85 7.38L23.85 7.38L23.85 7.38Q24.54 6.31 25.93 6.31L25.93 6.31L25.93 6.31Q27.19 6.31 27.64 7.20L27.64 7.20L27.64 7.20Q27.82 7.53 27.82 7.83L27.82 7.83L27.82 7.83Q27.82 8.13 27.79 8.31L27.79 8.31L27.79 8.31Q27.76 8.48 27.59 8.83L27.59 8.83L27.59 8.83Q27.43 9.18 27.15 9.46L27.15 9.46L27.15 9.46Q26.87 9.74 26.26 10.00L26.26 10.00L26.26 10.00Q25.66 10.25 24.85 10.33L24.85 10.33L24.85 10.33Q24.74 10.33 24.74 10.43L24.74 10.43L24.74 10.43Q24.74 10.56 24.83 10.80L24.83 10.80L24.83 10.80Q24.92 11.05 25.03 11.21L25.03 11.21L25.03 11.21Q25.34 11.61 25.94 11.61L25.94 11.61L25.94 11.61Q26.54 11.61 26.96 11.21L26.96 11.21L26.96 11.21Q27.19 11.00 27.33 10.70L27.33 10.70L27.33 10.70Q27.38 10.58 27.48 10.58L27.48 10.58L27.48 10.58Q27.57 10.58 27.62 10.74L27.62 10.74L27.62 10.74Q27.68 10.89 27.68 10.98Z"></path></g><!----><g data-v-423bf9ae="" id="be1b9ebd-4a80-45fd-ba81-1fc64a314ffa" transform="matrix(1.1111111111111112,0,0,1.1111111111111112,0.44444444444444287,0.44444444444444287)" stroke="none" fill="black"><path d="M87.427 25H75.086L87.5 12.549 75.232 0H57.837l12.464 12.451L57.531 25H42.773l12.684-12.451L42.92 0H25.244l12.451 12.451L24.927 25H12.402l12.695-12.451L12.549 0H0v100h100V0H87.744L100 12.5 87.427 25zm.073 62.365h-75v-12.5h75v12.5zm0-24.865h-75V50h75v12.5z"></path></g><!----><g data-v-423bf9ae="" id="4c2b7b83-c3c3-44bf-ba1f-8ec415e7b286" fill="black" transform="matrix(0.797888800444605,0,0,0.797888800444605,130.52864985015168,55.46799243664768)"><path d="M6.50 17.05L6.50 14.62L6.33 14.62L6.33 14.62Q5.99 15.25 5.41 15.56L5.41 15.56L5.41 15.56Q4.83 15.88 4.14 15.88L4.14 15.88L4.14 15.88Q3.44 15.88 2.83 15.64L2.83 15.64L2.83 15.64Q2.21 15.40 1.74 14.95L1.74 14.95L1.74 14.95Q1.27 14.50 1.00 13.84L1.00 13.84L1.00 13.84Q0.73 13.17 0.73 12.32L0.73 12.32L0.73 12.10L0.73 12.10Q0.73 11.26 1.01 10.59L1.01 10.59L1.01 10.59Q1.29 9.93 1.75 9.47L1.75 9.47L1.75 9.47Q2.21 9.02 2.83 8.78L2.83 8.78L2.83 8.78Q3.44 8.54 4.12 8.54L4.12 8.54L4.12 8.54Q4.87 8.54 5.44 8.87L5.44 8.87L5.44 8.87Q6.01 9.20 6.33 9.83L6.33 9.83L6.50 9.83L6.50 8.74L7.59 8.74L7.59 17.39L7.59 17.39Q7.59 17.86 7.29 18.17L7.29 18.17L7.29 18.17Q6.99 18.48 6.51 18.48L6.51 18.48L1.99 18.48L1.99 17.47L6.12 17.47L6.12 17.47Q6.50 17.47 6.50 17.05L6.50 17.05ZM4.17 14.84L4.17 14.84L4.17 14.84Q4.66 14.84 5.08 14.66L5.08 14.66L5.08 14.66Q5.50 14.48 5.82 14.14L5.82 14.14L5.82 14.14Q6.13 13.80 6.31 13.33L6.31 13.33L6.31 13.33Q6.50 12.87 6.50 12.29L6.50 12.29L6.50 12.12L6.50 12.12Q6.50 11.56 6.31 11.09L6.31 11.09L6.31 11.09Q6.13 10.63 5.82 10.29L5.82 10.29L5.82 10.29Q5.50 9.95 5.08 9.77L5.08 9.77L5.08 9.77Q4.65 9.58 4.17 9.58L4.17 9.58L4.17 9.58Q3.68 9.58 3.25 9.76L3.25 9.76L3.25 9.76Q2.83 9.94 2.51 10.28L2.51 10.28L2.51 10.28Q2.20 10.61 2.02 11.07L2.02 11.07L2.02 11.07Q1.85 11.54 1.85 12.10L1.85 12.10L1.85 12.32L1.85 12.32Q1.85 12.91 2.02 13.37L2.02 13.37L2.02 13.37Q2.20 13.83 2.51 14.16L2.51 14.16L2.51 14.16Q2.83 14.49 3.25 14.66L3.25 14.66L3.25 14.66Q3.67 14.84 4.17 14.84ZM23.18 12.54L17.58 12.54L17.58 12.54Q17.63 13.58 18.23 14.21L18.23 14.21L18.23 14.21Q18.83 14.84 19.91 14.84L19.91 14.84L19.91 14.84Q20.40 14.84 20.76 14.73L20.76 14.73L20.76 14.73Q21.13 14.62 21.38 14.42L21.38 14.42L21.38 14.42Q21.64 14.22 21.80 13.96L21.80 13.96L21.80 13.96Q21.97 13.71 22.06 13.41L22.06 13.41L23.10 13.69L23.10 13.69Q22.81 14.66 22.02 15.27L22.02 15.27L22.02 15.27Q21.22 15.88 19.88 15.88L19.88 15.88L19.88 15.88Q19.14 15.88 18.52 15.62L18.52 15.62L18.52 15.62Q17.89 15.36 17.44 14.88L17.44 14.88L17.44 14.88Q17.00 14.41 16.74 13.75L16.74 13.75L16.74 13.75Q16.49 13.09 16.49 12.29L16.49 12.29L16.49 11.96L16.49 11.96Q16.49 11.23 16.75 10.60L16.75 10.60L16.75 10.60Q17.01 9.97 17.47 9.51L17.47 9.51L17.47 9.51Q17.93 9.06 18.56 8.80L18.56 8.80L18.56 8.80Q19.18 8.54 19.91 8.54L19.91 8.54L19.91 8.54Q20.76 8.54 21.38 8.86L21.38 8.86L21.38 8.86Q22.01 9.17 22.41 9.63L22.41 9.63L22.41 9.63Q22.81 10.09 23.00 10.64L23.00 10.64L23.00 10.64Q23.18 11.19 23.18 11.65L23.18 11.65L23.18 12.54ZM19.91 9.58L19.91 9.58L19.91 9.58Q19.45 9.58 19.05 9.72L19.05 9.72L19.05 9.72Q18.65 9.87 18.35 10.14L18.35 10.14L18.35 10.14Q18.05 10.40 17.86 10.76L17.86 10.76L17.86 10.76Q17.67 11.12 17.61 11.54L17.61 11.54L22.09 11.54L22.09 11.54Q22.06 11.09 21.88 10.72L21.88 10.72L21.88 10.72Q21.69 10.36 21.38 10.11L21.38 10.11L21.38 10.11Q21.08 9.86 20.70 9.72L20.70 9.72L20.70 9.72Q20.31 9.58 19.91 9.58ZM32.12 9.74L32.12 8.74L34.30 8.74L34.30 5.88L35.39 5.88L35.39 8.74L38.08 8.74L38.08 9.74L35.39 9.74L35.39 14.25L35.39 14.25Q35.39 14.67 35.77 14.67L35.77 14.67L37.74 14.67L37.74 15.68L35.38 15.68L35.38 15.68Q34.90 15.68 34.60 15.37L34.60 15.37L34.60 15.37Q34.30 15.06 34.30 14.59L34.30 14.59L34.30 9.74L32.12 9.74ZM68.53 14.59L68.53 14.50L68.36 14.50L68.36 14.50Q68.03 15.20 67.43 15.54L67.43 15.54L67.43 15.54Q66.84 15.88 66.18 15.88L66.18 15.88L66.18 15.88Q65.49 15.88 64.90 15.64L64.90 15.64L64.90 15.64Q64.32 15.41 63.88 14.96L63.88 14.96L63.88 14.96Q63.43 14.50 63.18 13.85L63.18 13.85L63.18 13.85Q62.93 13.19 62.93 12.32L62.93 12.32L62.93 12.10L62.93 12.10Q62.93 11.24 63.18 10.58L63.18 10.58L63.18 10.58Q63.43 9.93 63.88 9.47L63.88 9.47L63.88 9.47Q64.32 9.02 64.90 8.78L64.90 8.78L64.90 8.78Q65.49 8.54 66.15 8.54L66.15 8.54L66.15 8.54Q66.86 8.54 67.44 8.86L67.44 8.86L67.44 8.86Q68.03 9.17 68.36 9.83L68.36 9.83L68.53 9.83L68.53 8.74L69.62 8.74L69.62 14.25L69.62 14.25Q69.62 14.67 70 14.67L70 14.67L70.35 14.67L70.35 15.68L69.61 15.68L69.61 15.68Q69.13 15.68 68.83 15.37L68.83 15.37L68.83 15.37Q68.53 15.06 68.53 14.59L68.53 14.59ZM66.29 14.84L66.29 14.84L66.29 14.84Q66.78 14.84 67.19 14.66L67.19 14.66L67.19 14.66Q67.61 14.48 67.90 14.14L67.90 14.14L67.90 14.14Q68.19 13.80 68.36 13.33L68.36 13.33L68.36 13.33Q68.53 12.87 68.53 12.29L68.53 12.29L68.53 12.12L68.53 12.12Q68.53 11.56 68.36 11.09L68.36 11.09L68.36 11.09Q68.19 10.63 67.89 10.29L67.89 10.29L67.89 10.29Q67.59 9.95 67.18 9.77L67.18 9.77L67.18 9.77Q66.77 9.58 66.29 9.58L66.29 9.58L66.29 9.58Q65.80 9.58 65.39 9.76L65.39 9.76L65.39 9.76Q64.99 9.94 64.69 10.27L64.69 10.27L64.69 10.27Q64.39 10.60 64.22 11.07L64.22 11.07L64.22 11.07Q64.05 11.54 64.05 12.10L64.05 12.10L64.05 12.32L64.05 12.32Q64.05 13.51 64.67 14.17L64.67 14.17L64.67 14.17Q65.30 14.84 66.29 14.84ZM84.43 15.68L84.43 14.62L84.27 14.62L84.27 14.62Q84.10 14.94 83.84 15.18L83.84 15.18L83.84 15.18Q83.58 15.41 83.28 15.57L83.28 15.57L83.28 15.57Q82.98 15.72 82.64 15.80L82.64 15.80L82.64 15.80Q82.31 15.88 82.00 15.88L82.00 15.88L82.00 15.88Q81.30 15.88 80.70 15.64L80.70 15.64L80.70 15.64Q80.09 15.40 79.64 14.95L79.64 14.95L79.64 14.95Q79.18 14.50 78.92 13.84L78.92 13.84L78.92 13.84Q78.67 13.17 78.67 12.32L78.67 12.32L78.67 12.10L78.67 12.10Q78.67 11.26 78.93 10.59L78.93 10.59L78.93 10.59Q79.20 9.93 79.65 9.47L79.65 9.47L79.65 9.47Q80.09 9.02 80.70 8.78L80.70 8.78L80.70 8.78Q81.30 8.54 81.97 8.54L81.97 8.54L81.97 8.54Q82.68 8.54 83.31 8.86L83.31 8.86L83.31 8.86Q83.93 9.17 84.27 9.83L84.27 9.83L84.43 9.83L84.43 5.88L85.53 5.88L85.53 15.68L84.43 15.68ZM82.11 14.84L82.11 14.84L82.11 14.84Q82.60 14.84 83.02 14.66L83.02 14.66L83.02 14.66Q83.44 14.48 83.76 14.14L83.76 14.14L83.76 14.14Q84.07 13.80 84.25 13.33L84.25 13.33L84.25 13.33Q84.43 12.87 84.43 12.29L84.43 12.29L84.43 12.12L84.43 12.12Q84.43 11.56 84.25 11.09L84.25 11.09L84.25 11.09Q84.07 10.63 83.76 10.29L83.76 10.29L83.76 10.29Q83.44 9.95 83.01 9.77L83.01 9.77L83.01 9.77Q82.59 9.58 82.11 9.58L82.11 9.58L82.11 9.58Q81.62 9.58 81.19 9.76L81.19 9.76L81.19 9.76Q80.77 9.94 80.45 10.28L80.45 10.28L80.45 10.28Q80.14 10.61 79.96 11.07L79.96 11.07L79.96 11.07Q79.79 11.54 79.79 12.10L79.79 12.10L79.79 12.32L79.79 12.32Q79.79 12.91 79.96 13.37L79.96 13.37L79.96 13.37Q80.14 13.83 80.45 14.16L80.45 14.16L80.45 14.16Q80.77 14.49 81.19 14.66L81.19 14.66L81.19 14.66Q81.61 14.84 82.11 14.84ZM100.00 15.68L100.00 14.62L99.83 14.62L99.83 14.62Q99.67 14.94 99.41 15.18L99.41 15.18L99.41 15.18Q99.15 15.41 98.85 15.57L98.85 15.57L98.85 15.57Q98.55 15.72 98.21 15.80L98.21 15.80L98.21 15.80Q97.87 15.88 97.57 15.88L97.57 15.88L97.57 15.88Q96.87 15.88 96.26 15.64L96.26 15.64L96.26 15.64Q95.66 15.40 95.21 14.95L95.21 14.95L95.21 14.95Q94.75 14.50 94.49 13.84L94.49 13.84L94.49 13.84Q94.23 13.17 94.23 12.32L94.23 12.32L94.23 12.10L94.23 12.10Q94.23 11.26 94.50 10.59L94.50 10.59L94.50 10.59Q94.77 9.93 95.21 9.47L95.21 9.47L95.21 9.47Q95.66 9.02 96.26 8.78L96.26 8.78L96.26 8.78Q96.87 8.54 97.54 8.54L97.54 8.54L97.54 8.54Q98.25 8.54 98.88 8.86L98.88 8.86L98.88 8.86Q99.50 9.17 99.83 9.83L99.83 9.83L100.00 9.83L100.00 5.88L101.09 5.88L101.09 15.68L100.00 15.68ZM97.68 14.84L97.68 14.84L97.68 14.84Q98.17 14.84 98.59 14.66L98.59 14.66L98.59 14.66Q99.01 14.48 99.32 14.14L99.32 14.14L99.32 14.14Q99.64 13.80 99.82 13.33L99.82 13.33L99.82 13.33Q100.00 12.87 100.00 12.29L100.00 12.29L100.00 12.12L100.00 12.12Q100.00 11.56 99.82 11.09L99.82 11.09L99.82 11.09Q99.64 10.63 99.32 10.29L99.32 10.29L99.32 10.29Q99.01 9.95 98.58 9.77L98.58 9.77L98.58 9.77Q98.15 9.58 97.68 9.58L97.68 9.58L97.68 9.58Q97.19 9.58 96.76 9.76L96.76 9.76L96.76 9.76Q96.33 9.94 96.02 10.28L96.02 10.28L96.02 10.28Q95.70 10.61 95.53 11.07L95.53 11.07L95.53 11.07Q95.35 11.54 95.35 12.10L95.35 12.10L95.35 12.32L95.35 12.32Q95.35 12.91 95.53 13.37L95.53 13.37L95.53 13.37Q95.70 13.83 96.02 14.16L96.02 14.16L96.02 14.16Q96.33 14.49 96.75 14.66L96.75 14.66L96.75 14.66Q97.17 14.84 97.68 14.84ZM112.35 6.66L112.35 6.66L112.35 6.66Q112.35 6.26 112.64 5.97L112.64 5.97L112.64 5.97Q112.92 5.68 113.33 5.68L113.33 5.68L113.33 5.68Q113.74 5.68 114.02 5.97L114.02 5.97L114.02 5.97Q114.31 6.26 114.31 6.66L114.31 6.66L114.31 6.66Q114.31 7.07 114.02 7.36L114.02 7.36L114.02 7.36Q113.74 7.64 113.33 7.64L113.33 7.64L113.33 7.64Q112.92 7.64 112.64 7.36L112.64 7.36L112.64 7.36Q112.35 7.07 112.35 6.66ZM110.36 15.68L110.36 14.67L112.80 14.67L112.80 9.74L110.61 9.74L110.61 8.74L113.89 8.74L113.89 14.67L116.16 14.67L116.16 15.68L110.36 15.68ZM131.17 12.96L132.26 13.22L132.26 13.22Q132.15 13.79 131.87 14.28L131.87 14.28L131.87 14.28Q131.60 14.77 131.18 15.13L131.18 15.13L131.18 15.13Q130.76 15.48 130.20 15.68L130.20 15.68L130.20 15.68Q129.64 15.88 128.95 15.88L128.95 15.88L128.95 15.88Q128.23 15.88 127.58 15.64L127.58 15.64L127.58 15.64Q126.92 15.40 126.43 14.95L126.43 14.95L126.43 14.95Q125.94 14.49 125.66 13.83L125.66 13.83L125.66 13.83Q125.37 13.17 125.37 12.32L125.37 12.32L125.37 12.15L125.37 12.15Q125.37 11.31 125.66 10.64L125.66 10.64L125.66 10.64Q125.94 9.97 126.43 9.51L126.43 9.51L126.43 9.51Q126.92 9.04 127.58 8.79L127.58 8.79L127.58 8.79Q128.23 8.54 128.95 8.54L128.95 8.54L128.95 8.54Q129.61 8.54 130.17 8.74L130.17 8.74L130.17 8.74Q130.73 8.93 131.16 9.29L131.16 9.29L131.16 9.29Q131.59 9.65 131.86 10.14L131.86 10.14L131.86 10.14Q132.13 10.63 132.23 11.20L132.23 11.20L131.14 11.45L131.14 11.45Q131.10 11.09 130.94 10.74L130.94 10.74L130.94 10.74Q130.77 10.40 130.50 10.14L130.50 10.14L130.50 10.14Q130.23 9.88 129.84 9.73L129.84 9.73L129.84 9.73Q129.44 9.58 128.93 9.58L128.93 9.58L128.93 9.58Q128.42 9.58 127.98 9.77L127.98 9.77L127.98 9.77Q127.54 9.95 127.20 10.30L127.20 10.30L127.20 10.30Q126.87 10.64 126.68 11.12L126.68 11.12L126.68 11.12Q126.49 11.59 126.49 12.15L126.49 12.15L126.49 12.32L126.49 12.32Q126.49 12.91 126.68 13.38L126.68 13.38L126.68 13.38Q126.87 13.85 127.20 14.17L127.20 14.17L127.20 14.17Q127.54 14.49 127.99 14.66L127.99 14.66L127.99 14.66Q128.44 14.84 128.95 14.84L128.95 14.84L128.95 14.84Q129.47 14.84 129.86 14.68L129.86 14.68L129.86 14.68Q130.24 14.52 130.51 14.26L130.51 14.26L130.51 14.26Q130.79 14 130.95 13.66L130.95 13.66L130.95 13.66Q131.11 13.33 131.17 12.96L131.17 12.96ZM141.09 9.74L141.09 8.74L143.28 8.74L143.28 5.88L144.37 5.88L144.37 8.74L147.06 8.74L147.06 9.74L144.37 9.74L144.37 14.25L144.37 14.25Q144.37 14.67 144.75 14.67L144.75 14.67L146.72 14.67L146.72 15.68L144.35 15.68L144.35 15.68Q143.88 15.68 143.58 15.37L143.58 15.37L143.58 15.37Q143.28 15.06 143.28 14.59L143.28 14.59L143.28 9.74L141.09 9.74ZM163.30 12.54L157.70 12.54L157.70 12.54Q157.74 13.58 158.34 14.21L158.34 14.21L158.34 14.21Q158.94 14.84 160.02 14.84L160.02 14.84L160.02 14.84Q160.51 14.84 160.87 14.73L160.87 14.73L160.87 14.73Q161.24 14.62 161.50 14.42L161.50 14.42L161.50 14.42Q161.76 14.22 161.92 13.96L161.92 13.96L161.92 13.96Q162.08 13.71 162.18 13.41L162.18 13.41L163.21 13.69L163.21 13.69Q162.92 14.66 162.13 15.27L162.13 15.27L162.13 15.27Q161.34 15.88 159.99 15.88L159.99 15.88L159.99 15.88Q159.25 15.88 158.63 15.62L158.63 15.62L158.63 15.62Q158.00 15.36 157.56 14.88L157.56 14.88L157.56 14.88Q157.11 14.41 156.86 13.75L156.86 13.75L156.86 13.75Q156.60 13.09 156.60 12.29L156.60 12.29L156.60 11.96L156.60 11.96Q156.60 11.23 156.86 10.60L156.86 10.60L156.86 10.60Q157.12 9.97 157.58 9.51L157.58 9.51L157.58 9.51Q158.05 9.06 158.67 8.80L158.67 8.80L158.67 8.80Q159.29 8.54 160.02 8.54L160.02 8.54L160.02 8.54Q160.87 8.54 161.50 8.86L161.50 8.86L161.50 8.86Q162.12 9.17 162.52 9.63L162.52 9.63L162.52 9.63Q162.92 10.09 163.11 10.64L163.11 10.64L163.11 10.64Q163.30 11.19 163.30 11.65L163.30 11.65L163.30 12.54ZM160.02 9.58L160.02 9.58L160.02 9.58Q159.56 9.58 159.16 9.72L159.16 9.72L159.16 9.72Q158.76 9.87 158.46 10.14L158.46 10.14L158.46 10.14Q158.16 10.40 157.97 10.76L157.97 10.76L157.97 10.76Q157.78 11.12 157.72 11.54L157.72 11.54L162.20 11.54L162.20 11.54Q162.18 11.09 161.99 10.72L161.99 10.72L161.99 10.72Q161.80 10.36 161.50 10.11L161.50 10.11L161.50 10.11Q161.20 9.86 160.81 9.72L160.81 9.72L160.81 9.72Q160.43 9.58 160.02 9.58ZM177.84 15.68L177.84 14.62L177.67 14.62L177.67 14.62Q177.51 14.94 177.25 15.18L177.25 15.18L177.25 15.18Q176.99 15.41 176.69 15.57L176.69 15.57L176.69 15.57Q176.39 15.72 176.05 15.80L176.05 15.80L176.05 15.80Q175.71 15.88 175.41 15.88L175.41 15.88L175.41 15.88Q174.71 15.88 174.10 15.64L174.10 15.64L174.10 15.64Q173.50 15.40 173.05 14.95L173.05 14.95L173.05 14.95Q172.59 14.50 172.33 13.84L172.33 13.84L172.33 13.84Q172.07 13.17 172.07 12.32L172.07 12.32L172.07 12.10L172.07 12.10Q172.07 11.26 172.34 10.59L172.34 10.59L172.34 10.59Q172.61 9.93 173.05 9.47L173.05 9.47L173.05 9.47Q173.50 9.02 174.10 8.78L174.10 8.78L174.10 8.78Q174.71 8.54 175.38 8.54L175.38 8.54L175.38 8.54Q176.09 8.54 176.72 8.86L176.72 8.86L176.72 8.86Q177.34 9.17 177.67 9.83L177.67 9.83L177.84 9.83L177.84 5.88L178.93 5.88L178.93 15.68L177.84 15.68ZM175.52 14.84L175.52 14.84L175.52 14.84Q176.01 14.84 176.43 14.66L176.43 14.66L176.43 14.66Q176.85 14.48 177.16 14.14L177.16 14.14L177.16 14.14Q177.48 13.80 177.66 13.33L177.66 13.33L177.66 13.33Q177.84 12.87 177.84 12.29L177.84 12.29L177.84 12.12L177.84 12.12Q177.84 11.56 177.66 11.09L177.66 11.09L177.66 11.09Q177.48 10.63 177.16 10.29L177.16 10.29L177.16 10.29Q176.85 9.95 176.42 9.77L176.42 9.77L176.42 9.77Q175.99 9.58 175.52 9.58L175.52 9.58L175.52 9.58Q175.03 9.58 174.60 9.76L174.60 9.76L174.60 9.76Q174.17 9.94 173.86 10.28L173.86 10.28L173.86 10.28Q173.54 10.61 173.37 11.07L173.37 11.07L173.37 11.07Q173.19 11.54 173.19 12.10L173.19 12.10L173.19 12.32L173.19 12.32Q173.19 12.91 173.37 13.37L173.37 13.37L173.37 13.37Q173.54 13.83 173.86 14.16L173.86 14.16L173.86 14.16Q174.17 14.49 174.59 14.66L174.59 14.66L174.59 14.66Q175.01 14.84 175.52 14.84Z"></path></g></svg>