<svg data-v-fde0c5aa="" xmlns="http://www.w3.org/2000/svg" viewBox="0 0 300 300" class="icon"><!----><defs data-v-fde0c5aa=""><!----></defs><rect data-v-fde0c5aa="" fill="#FFFFFF" x="0" y="0" width="300px" height="300px" class="logo-background-square"></rect><!----><defs data-v-fde0c5aa=""><linearGradient data-v-fde0c5aa="" gradientTransform="rotate(25)" id="10b98766-afe3-4579-8494-7a3a761df831" x1="0%" y1="0%" x2="100%" y2="0%"><stop data-v-fde0c5aa="" offset="0%" stop-color="#338EF4" stop-opacity="1"></stop><stop data-v-fde0c5aa="" offset="100%" stop-color="#1064C3" stop-opacity="1"></stop></linearGradient></defs><g data-v-fde0c5aa="" id="c5dd6756-5fdc-4509-b89a-85305da30e2c" fill="url(#10b98766-afe3-4579-8494-7a3a761df831)" stroke="none" transform="matrix(2.2,0,0,2.2,39.999999999999986,39.999999999999986)"><path d="M87.427 25H75.086L87.5 12.549 75.232 0H57.837l12.464 12.451L57.531 25H42.773l12.684-12.451L42.92 0H25.244l12.451 12.451L24.927 25H12.402l12.695-12.451L12.549 0H0v100h100V0H87.744L100 12.5 87.427 25zm.073 62.365h-75v-12.5h75v12.5zm0-24.865h-75V50h75v12.5z"></path></g><!----></svg>